<svg width="41.418579mm" height="40.54665mm" version="1.1" xmlns="http://www.w3.org/2000/svg">
 <title>Kyma Logo Symbol</title>
 <g transform="translate(.00133183 -.00287683)" fill="#0b74de">
  <path d="m107.46 153.25h-58.37a12.6 12.6 0 0 1-9.92-4.78l-36.4-45.63a12.64 12.64 0 0 1-2.45-10.73l13-56.91a12.63 12.63 0 0 1 6.87-8.61l52.58-25.33a12.66 12.66 0 0 1 11 0l52.59 25.33a12.59 12.59 0 0 1 6.86 8.61l13 56.91a12.64 12.64 0 0 1-2.45 10.73l-36.4 45.63a12.58 12.58 0 0 1-9.91 4.78zm-32.38-147.18-52.59 25.33a7.32 7.32 0 0 0-4 5l-13 56.91a7.32 7.32 0 0 0 1.51 6.2l36.39 45.63a7.31 7.31 0 0 0 5.75 2.77h58.37a7.32 7.32 0 0 0 5.74-2.76l36.39-45.64a7.29 7.29 0 0 0 1.36-6.22l-13-56.91a7.3 7.3 0 0 0-4-5l-52.54-25.31a7.36 7.36 0 0 0-6.38 0z" fill="#0b74de"/>
 </g>
 <g transform="translate(.00133183 -.00287683)" fill="#0b74de">
  <path d="m34.91 59.18v32.51a15.63 15.63 0 0 1 7.09-1.69h7c11.55 0 19.3-3.56 25.9-8.49-1.89-1.68-3.73-3.39-5.5-5.09-8.94-8.5-18.26-16.53-34.49-17.24z"/>
  <path d="m121.63 59.45c-16 .79-24.36 8.75-33.22 17.15-9.67 9.17-19.67 18.66-39.48 18.66h-6.93a7.12 7.12 0 0 0-7 7v8.9h86.67z"/>
  <path d="m76.57 56.21c-7.39-7.07-14.8-14.14-29.57-14.14v14a46.81 46.81 0 0 1 17.11 9.15c4.89-2.15 8.67-5.43 12.46-9.01z"/>
  <path d="m107.25 44.51c-12.25.71-18.78 6.91-25.62 13.49-4 3.86-8.22 7.82-13.64 10.68 1.57 1.43 3.11 2.88 4.63 4.33 1.92 1.85 3.92 3.72 6 5.5 2.11-1.82 4.15-3.74 6.21-5.7 6.4-6.07 13-12.24 22.46-15.74z"/>
 </g>
</svg>
