<svg width="158.79mm" height="43.372mm" version="1.1" xmlns="http://www.w3.org/2000/svg">
 <title>Kyma Logo Outline</title>
 <g transform="matrix(6.5159 0 0 6.5159 1.4557 1.7751)" fill="none" stroke="#0b74de">
  <g stroke-width=".4">
   <path d="m34.383 20.325v-15.825h3.45v6.5417l5.2334-6.5417h4.0083l-5.3 6.1833 5.8333 9.6417h-3.8583l-4.2083-6.9917-1.6667 1.95v5.0667z"/>
   <path d="m47.367 24.275 0.7083-2.6083c0.1583 0.0416 0.4333 0.1083 0.8333 0.1833a6.1667 6.1667 0 0 0 1.325 0.125c0.313 0.0144 0.623-0.0639 0.8917-0.225a1.5333 1.5333 0 0 0 0.5417-0.7667l0.2166-0.5583-4.3333-11.5h3.5083l2.5 7.4 2.5-7.4h3.2917l-4.725 12.6a8.425 8.425 0 0 1-0.6417 1.3167 4.4 4.4 0 0 1-0.8333 1c-0.3241 0.28-0.701 0.4925-1.1083 0.625a4.4 4.4 0 0 1-1.475 0.2166 11.583 11.583 0 0 1-2.0167-0.1416c-0.4917-0.0917-0.8833-0.1834-1.1833-0.2667z"/>
   <path d="m61.258 20.325v-11.4h3.4v1.7833a4.9167 4.9167 0 0 1 0.6084-0.6833 5.4583 5.4583 0 0 1 0.8333-0.65 4.4667 4.4667 0 0 1 1.025-0.4833 3.65 3.65 0 0 1 1.2333-0.1917 3.55 3.55 0 0 1 2.1334 0.5333 2.5 2.5 0 0 1 0.95 1.475c0.175-0.2083 0.3833-0.4333 0.6166-0.675 0.2503-0.2522 0.53-0.4732 0.8334-0.6583a4.7 4.7 0 0 1 1.0333-0.4833 3.6667 3.6667 0 0 1 1.2417-0.1917 3.9333 3.9333 0 0 1 1.4583 0.25 2.825 2.825 0 0 1 1.0333 0.725c0.2784 0.3213 0.4832 0.6996 0.6 1.1083 0.1358 0.454 0.2004 0.9263 0.1917 1.4v8.1417h-3.4167v-7.2417c0.0233-0.406-0.06-0.811-0.2416-1.175a1.0667 1.0667 0 0 0-0.9834-0.3916 2.1917 2.1917 0 0 0-1.1583 0.325 7.425 7.425 0 0 0-1.0917 0.8333v7.6667h-3.4v-7.2584c0.0233-0.406-0.06-0.811-0.2416-1.175a1.075 1.075 0 0 0-0.9834-0.3916 2.225 2.225 0 0 0-1.175 0.325 7.5 7.5 0 0 0-1.1 0.8333v7.6667z"/>
   <path d="m87.352 8.7051c-0.14216-5.733e-4 -0.28427 0.00595-0.42578 0.019531-0.63992-0.0038-1.2788 0.052438-1.9082 0.16797-0.52584 0.10016-1.0402 0.25328-1.5352 0.45703-0.42375 0.17965-0.83035 0.39733-1.2148 0.65039-0.34215 0.2154-0.6685 0.45494-0.97656 0.7168l1.4414 1.9746c0.50725-0.4154 1.0683-0.76032 1.668-1.0254 0.6338-0.26277 1.3139-0.3956 2-0.39062 0.42388-0.0424 0.8463 0.09345 1.166 0.375 0.2402 0.27588 0.36288 0.63481 0.3418 1v0.27539c-1.8917 0.03871-3.7474 0.5239-5.416 1.416-1.0689 0.64596-1.7065 1.8181-1.668 3.0664 0.0054 0.45185 0.10517 0.89759 0.29297 1.3086 0.15454 0.37257 0.39083 0.70565 0.69141 0.97461 0.30121 0.26047 0.64918 0.4613 1.0254 0.5918 0.38616 0.13063 0.79156 0.19533 1.1992 0.19141 0.76028 0.01794 1.514-0.14472 2.1992-0.47461 0.65775-0.32556 1.242-0.78218 1.7168-1.3418-0.0038 0.30225 0.02436 0.60406 0.08398 0.90039 0.05 0.275 0.10918 0.52539 0.17578 0.77539h3.3828c-0.1321-0.3509-0.2162-0.7184-0.25-1.0918-0.0515-0.554-0.07341-1.1117-0.06641-1.668v-4.3828c0.0857-1.199-0.27695-2.3872-1.0176-3.334-0.78851-0.73725-1.8267-1.1489-2.9062-1.1523zm0.61524 6.1113v2.1094c-0.29604 0.3056-0.6499 0.54926-1.041 0.7168-0.48455 0.19405-1.0036 0.2871-1.5254 0.27344-0.3217 0.0166-0.63969-0.07643-0.90039-0.26562-0.23986-0.20798-0.36671-0.51749-0.3418-0.83398h-0.01563c0.02962-0.56906 0.38262-1.0708 0.9082-1.291 0.91838-0.41872 1.9079-0.65937 2.916-0.70904z"/>
  </g>
  <path d="m21.315 5.1019-0.0449-5.1375c-3.8944 0.24006-6.0502 2.2569-8.1769 4.4754-1.2715 1.4192-2.9623 2.4234-4.5537 3.4058m4.4465-3.2473c-2.3568-2.3084-4.7226-4.5984-9.4363-4.5984v4.8252m21.958-0.55428c-4.675 0.24347-7.2614 2.3453-9.853 5.0234-2.8417 2.9216-5.9918 5.7409-11.574 5.7409h-2.0417c-0.80394 0.043442-1.4161 0.6849-1.7734 1.4117-0.16634 0.32321-0.25784 0.6852-0.2667 1.055v2.8314h25.5zm-12.675 7.6262c-3.7697-4.1769-7.929-7.4759-12.558-7.7429l-0.26488-0.00456v13.324" stroke-width=".4456"/>
 </g>
</svg>
